<?xml version="1.0" encoding="UTF-8"?><svg id="Layer_1" data-name="Layer 1" xmlns="http://www.w3.org/2000/svg" viewBox="0 0 1000 1000" x="0px" y="0px" width="1000px" height="1000px" version="1.1" xmlns:xlink="http://www.w3.org/1999/xlink"><path d="M892.61,587.29A59.813,59.813,0,0,1,832.8,647.1H222.81a44.165,44.165,0,1,1,0-88.33H353.92V503.55H154.79a27.605,27.605,0,0,1,0-55.21H361.76a22.085,22.085,0,1,0,0-44.17H220.97a21.165,21.165,0,0,1,0-42.33H388.06a27.605,27.605,0,0,0,0-55.21H314.58a27.605,27.605,0,1,1,0-55.21h398.9a27.605,27.605,0,1,1,0,55.21h-83.3a27.605,27.605,0,0,0,0,55.21H752.53a27.61,27.61,0,0,1,0,55.22H704.72a55.21,55.21,0,0,0,0,110.42H832.8a59.817,59.817,0,0,1,59.81,59.81Z" fill="#395d77" opacity="0.35"/><rect x="790.502" y="361.844" width="55.212" height="55.212" rx="27.606" fill="#395d77" opacity="0.35"/><path d="M273.13,279.03a27.621,27.621,0,0,1-27.61,27.6h-3.89a27.605,27.605,0,0,1,0-55.21h3.89A27.608,27.608,0,0,1,273.13,279.03Z" fill="#395d77" opacity="0.35"/><path d="M854.33,674.26a10,10,0,0,1-10,10H503.21a10,10,0,0,0,0,20H674.85a10,10,0,1,1,0,20H294.65a10,10,0,0,1,0-20H378a10,10,0,0,0,0-20H184.18a10,10,0,0,1,0-20H844.33A10,10,0,0,1,854.33,674.26Z" fill="#1b2238"/><rect x="225.578" y="456.262" width="236" height="182" fill="#1b2238"/><rect x="270.577" y="447.262" width="146" height="200" transform="translate(890.84 203.685) rotate(90)" fill="#1a1f33"/><rect x="209.578" y="456.262" width="16" height="182" fill="#6c9c36"/><rect x="509.578" y="546.762" width="133.772" height="68" rx="34" fill="#e63e35"/><rect x="225.578" y="546.762" width="397" height="68" rx="34" fill="#c61d34"/><path d="M231.058,599.263a33.963,33.963,0,0,0,28.52,15.5h329a33.963,33.963,0,0,0,28.519-15.5Z" fill="#af142e"/><rect x="565.578" y="514.262" width="236" height="124" fill="#1b2238"/><rect x="639.577" y="476.262" width="88" height="200" transform="translate(1259.84 -107.315) rotate(90)" fill="#1a1f33"/><rect x="549.578" y="514.262" width="16" height="124" fill="#6c9c38"/><rect x="594.578" y="638.262" width="16" height="36" fill="#593422"/><rect x="594.578" y="638.262" width="16" height="6.587" fill="#1a1f33"/><rect x="610.578" y="638.262" width="12" height="36" fill="#1a1f33"/><rect x="744.578" y="638.262" width="16" height="36" fill="#1b2238"/><rect x="744.578" y="638.262" width="16" height="6.587" fill="#1a1f33"/><rect x="760.578" y="638.262" width="12" height="36" fill="#1a1f33"/><rect x="254.578" y="638.262" width="16" height="36" fill="#593422"/><rect x="254.578" y="638.262" width="16" height="6.587" fill="#1a1f33"/><rect x="270.578" y="638.262" width="12" height="36" fill="#1a1f33"/><rect x="404.578" y="638.262" width="16" height="36" fill="#1a1f33"/><rect x="404.578" y="638.262" width="16" height="6.587" fill="#1a1f33"/><rect x="420.578" y="638.262" width="12" height="36" fill="#1a1f33"/><rect x="209.578" y="614.262" width="340" height="24" fill="#6c9c38"/><path d="M507.253,582.388a31.625,31.625,0,0,1,31.625-31.625h3.1v-4H529.253a34,34,0,0,0-34,34v57.5h12Z" fill="#1b2238"/><path d="M532.159,546.762H389a34,34,0,0,0-34,34v93.5H498.159v-93.5A34,34,0,0,1,532.159,546.762Z" fill="#f0ec95"/><ellipse cx="429.804" cy="550.371" rx="37.334" ry="4.921" fill="#1b2238"/><ellipse cx="340.751" cy="551.683" rx="37.334" ry="4.921" fill="#1b2238"/><path d="M501.253,674.262v-93.5a30.034,30.034,0,0,1,30-30h4.1v-4h-4.1a34,34,0,0,0-34,34v93.5Z" fill="#cec67a"/><rect x="534.378" y="546.762" width="15.199" height="4.001" fill="#cec67a"/><path d="M384.5,583.263h0a7.5,7.5,0,0,1,7.5,7.5v83.495a0,0,0,0,1,0,0H376.992a0,0,0,0,1,0,0V590.767A7.5,7.5,0,0,1,384.5,583.263Z" fill="#cec67a"/><path d="M412.551,583.263h0a7.5,7.5,0,0,1,7.5,7.5v83.495a0,0,0,0,1,0,0H405.046a0,0,0,0,1,0,0V590.767A7.5,7.5,0,0,1,412.551,583.263Z" fill="#cec67a"/><path d="M440.6,583.263h0a7.5,7.5,0,0,1,7.5,7.5v83.495a0,0,0,0,1,0,0H433.1a0,0,0,0,1,0,0V590.767A7.5,7.5,0,0,1,440.6,583.263Z" fill="#cec67a"/><path d="M468.659,583.263h0a7.5,7.5,0,0,1,7.5,7.5v83.495a0,0,0,0,1,0,0H461.154a0,0,0,0,1,0,0V590.767A7.5,7.5,0,0,1,468.659,583.263Z" fill="#cec67a"/><path d="M449.729,509.007a46.04,46.04,0,0,0-32.347-15.237c-.122,0-.242,0-.362,0l-.006-.009H365.437l36.7,55.5h51.781l-.006-.009a7.235,7.235,0,0,0,7.288-6.663A45.075,45.075,0,0,0,449.729,509.007Z" fill="#cbddaf"/><path d="M369.62,534.019a46.042,46.042,0,0,0,32.347,15.237,7.245,7.245,0,0,0,7.581-6.665,45.075,45.075,0,0,0-11.476-33.584,46.038,46.038,0,0,0-32.347-15.237,7.245,7.245,0,0,0-7.581,6.665A45.075,45.075,0,0,0,369.62,534.019Z" fill="#eff9e1"/><path d="M409.6,541.638c-.017.318-.024.636-.048.953a7.239,7.239,0,0,1-7.411,6.664l0,.008h51.78l-.005-.009a7.235,7.235,0,0,0,7.288-6.663c.024-.317.031-.635.048-.953Z" fill="#a4b783"/><path d="M362.289,509.007a46.042,46.042,0,0,0-32.348-15.237c-.121,0-.241,0-.362,0l-.006-.009H278l36.7,55.5h51.78l-.005-.009a7.235,7.235,0,0,0,7.288-6.663A45.075,45.075,0,0,0,362.289,509.007Z" fill="#cbddaf"/><path d="M282.18,534.019a46.042,46.042,0,0,0,32.347,15.237,7.245,7.245,0,0,0,7.581-6.665,45.075,45.075,0,0,0-11.476-33.584,46.04,46.04,0,0,0-32.347-15.237,7.246,7.246,0,0,0-7.582,6.665A45.076,45.076,0,0,0,282.18,534.019Z" fill="#eff9e1"/><path d="M322.156,541.638c-.017.318-.024.636-.048.953a7.24,7.24,0,0,1-7.411,6.664l0,.008h51.78l-.005-.009a7.235,7.235,0,0,0,7.288-6.663c.023-.317.03-.635.047-.953Z" fill="#a4b783"/><path d="M648.474,357.18c.844-5.955-2.389-12.057-8.09-13.754-5.675-1.7-12.076,3-13.186,10.656a14.967,14.967,0,0,0-.033,4.117,109.123,109.123,0,0,0,8.155,40.383l10.128-2.771a92.991,92.991,0,0,1,2.125-35.395A13.133,13.133,0,0,0,648.474,357.18Z" fill="#6c9c38"/><path d="M645.913,367.752a5.4,5.4,0,0,1,6.68-2.047c2.334,1.13,3.011,4.541,1.1,7.341a6.545,6.545,0,0,1-1.207,1.339c-4.224,4.513-4.121,8.907-9.509,11.435q-1.226-1.945-2.45-3.89c4.12-3.46,2.337-8.393,4.715-12.867A5.769,5.769,0,0,1,645.913,367.752Z" fill="#1a1f33"/><path d="M640.384,343.105a9.415,9.415,0,0,0-7.542,1.594,6.085,6.085,0,0,1,2.64-.4c5.959.5,9.605,6.929,8.761,12.884a13.176,13.176,0,0,1-.9,3.236,92.991,92.991,0,0,0-2.125,35.395l-6.312,1.727c.139.348.273.7.415,1.044l10.128-2.771a92.991,92.991,0,0,1,2.125-35.395,13.133,13.133,0,0,0,.9-3.236C649.318,351.225,646.085,344.8,640.384,343.105Z" fill="#1a1f33"/><path d="M628.734,417.36H651.88c6.953-5.182,11.636-14.881,11.636-26H617.1C617.1,402.479,621.781,412.178,628.734,417.36Z" fill="#f9f9f9"/><path d="M632.161,357.319l-2.241.538,2.09,1.038a.745.745,0,0,0,1.077-.667v-.18A.75.75,0,0,0,632.161,357.319Z" fill="#3a7741"/><path d="M638.094,354.057l-1.818-1.416.492,2.281a.744.744,0,0,0,1.192.426l.141-.112A.751.751,0,0,0,638.094,354.057Z" fill="#3a7741"/><path d="M635.828,372.021l-2.236.559,2.1,1.019a.745.745,0,0,0,1.07-.677l0-.18A.75.75,0,0,0,635.828,372.021Z" fill="#3a7741"/><path d="M645.913,367.752a5.769,5.769,0,0,0-.667,1.311,40.292,40.292,0,0,1-4.231,6.4v7.933a47.709,47.709,0,0,0,7.3-5.068c.14-2.181.284-4.7.284-5.817,0-1.337,1.2-4.789,2.138-7.27A5.68,5.68,0,0,0,645.913,367.752Z" fill="#1a1f33"/><path d="M648.012,391.36a36.151,36.151,0,0,1,.731,7.222,34.816,34.816,0,0,1-5.374,18.778h8.647c6.953-5.182,11.636-14.881,11.636-26Z" fill="#1a1f33"/><rect x="565.578" y="416.36" width="79.676" height="11.999" fill="#a57767"/><rect x="645.253" y="416.36" width="65" height="11.999" fill="#1b2238"/><rect x="461.578" y="398.652" width="96" height="55.212" rx="27.606" fill="#1b3b52"/></svg>